<svg xmlns="http://www.w3.org/2000/svg" viewBox="0 0 1200 675" font-family="Arial, Helvetica, sans-serif">
<rect width="1200" height="675" fill="#f2f8f4"/>

<text x="70" y="86" font-size="22" letter-spacing="4" fill="#17693e" font-weight="bold">TENDERS</text>
<text x="70" y="146" font-size="46" font-family="Georgia, serif" font-weight="bold" fill="#17211b">SECI floats 700 MW solar tender</text><rect x="0" y="560" width="1200" height="115" fill="#dceadf"/><circle cx="1055" cy="150" r="42" fill="#f2c94c"/><line x1="1111" y1="150" x2="1131" y2="150" stroke="#f2c94c" stroke-width="9" stroke-linecap="round"/><line x1="1094.5979797464468" y1="189.59797974644664" x2="1108.7401153701776" y2="203.7401153701776" stroke="#f2c94c" stroke-width="9" stroke-linecap="round"/><line x1="1055" y1="206" x2="1055" y2="226" stroke="#f2c94c" stroke-width="9" stroke-linecap="round"/><line x1="1015.4020202535534" y1="189.59797974644667" x2="1001.2598846298224" y2="203.74011537017762" stroke="#f2c94c" stroke-width="9" stroke-linecap="round"/><line x1="999" y1="150" x2="979" y2="150" stroke="#f2c94c" stroke-width="9" stroke-linecap="round"/><line x1="1015.4020202535534" y1="110.40202025355335" x2="1001.2598846298224" y2="96.2598846298224" stroke="#f2c94c" stroke-width="9" stroke-linecap="round"/><line x1="1055" y1="94" x2="1055" y2="74" stroke="#f2c94c" stroke-width="9" stroke-linecap="round"/><line x1="1094.5979797464468" y1="110.40202025355333" x2="1108.7401153701776" y2="96.25988462982238" stroke="#f2c94c" stroke-width="9" stroke-linecap="round"/><g>
<rect x="160" y="210" width="300" height="360" rx="10" fill="#ffffff" stroke="#c9d4cc" stroke-width="4"/>
<rect x="195" y="250" width="230" height="20" rx="10" fill="#0f4c2c"/>
<rect x="195" y="300" width="230" height="14" rx="7" fill="#dfe7e1"/><rect x="195" y="340" width="170" height="14" rx="7" fill="#dfe7e1"/><rect x="195" y="380" width="230" height="14" rx="7" fill="#dfe7e1"/><rect x="195" y="420" width="170" height="14" rx="7" fill="#dfe7e1"/><rect x="195" y="460" width="230" height="14" rx="7" fill="#dfe7e1"/>
<circle cx="400" cy="520" r="34" fill="#e9f3ec" stroke="#17693e" stroke-width="4"/>
<text x="400" y="530" font-size="20" font-weight="bold" fill="#0f4c2c" text-anchor="middle">700</text>
<text x="288" y="605" font-size="21" fill="#5d6a62" text-anchor="middle">Notice Inviting Tender · July 2026</text>
</g><g transform="skewX(-14)" transform-origin="620 545">
<rect x="620" y="430" width="200" height="115" rx="6" fill="#1d4869"/><rect x="633" y="443" width="54" height="41.5" rx="3" fill="#2b5f8f"/><rect x="693" y="443" width="54" height="41.5" rx="3" fill="#2b5f8f"/><rect x="753" y="443" width="54" height="41.5" rx="3" fill="#2b5f8f"/><rect x="633" y="490.5" width="54" height="41.5" rx="3" fill="#2b5f8f"/><rect x="693" y="490.5" width="54" height="41.5" rx="3" fill="#2b5f8f"/><rect x="753" y="490.5" width="54" height="41.5" rx="3" fill="#2b5f8f"/>
</g>
<rect x="713" y="545" width="14" height="46" fill="#66756b"/><g transform="skewX(-14)" transform-origin="870 545">
<rect x="870" y="430" width="200" height="115" rx="6" fill="#1d4869"/><rect x="883" y="443" width="54" height="41.5" rx="3" fill="#2b5f8f"/><rect x="943" y="443" width="54" height="41.5" rx="3" fill="#2b5f8f"/><rect x="1003" y="443" width="54" height="41.5" rx="3" fill="#2b5f8f"/><rect x="883" y="490.5" width="54" height="41.5" rx="3" fill="#2b5f8f"/><rect x="943" y="490.5" width="54" height="41.5" rx="3" fill="#2b5f8f"/><rect x="1003" y="490.5" width="54" height="41.5" rx="3" fill="#2b5f8f"/>
</g>
<rect x="963" y="545" width="14" height="46" fill="#66756b"/><text x="70" y="639" font-size="19" fill="#5d6a62">Illustration: GreenGrid India</text>
<rect x="0" y="665" width="1200" height="10" fill="#0f4c2c"/>
</svg>